<svg xmlns="http://www.w3.org/2000/svg" width="408.672" height="73.062" viewBox="0 0 408.672 73.062">
  <path id="gigreen" d="M325.974,96.976Q318.7,88.461,318.2,71.731h20.79q.494,10.1,4.257,13.91t11.286,3.812a33.7,33.7,0,0,0,4.554-.3q2.178-.3,4.653-.693V104.1a47.179,47.179,0,0,1-6.93,1.039q-4.059.347-7.227.347Q333.25,105.49,325.974,96.976ZM184.156,82.819l-5.445-13.563h23.265v31.878a23.505,23.505,0,0,1-7.871,3.118,55.834,55.834,0,0,1-9.949,1.238Zm-137.808,0L40.9,69.256H64.168v31.878a23.505,23.505,0,0,1-7.871,3.118,55.834,55.834,0,0,1-9.95,1.238ZM164.7,101.332a23.656,23.656,0,0,1-9.6-10.84q-3.415-7.276-3.811-18.859h20.79q.2,7.524,1.782,11.484a9.263,9.263,0,0,0,5.346,5.445v16.83A32.529,32.529,0,0,1,164.7,101.332Zm-137.808,0a23.656,23.656,0,0,1-9.6-10.84q-3.416-7.276-3.811-18.859H34.27q.2,7.524,1.782,11.484A9.263,9.263,0,0,0,41.4,88.561v16.83A32.529,32.529,0,0,1,26.895,101.332ZM384.73,104.5V82.72l-18.018-49.5H387.5l16.533,50.391V104.5Zm-96.129,0L253.06,33.22h22.968l35.739,71.28Zm-31.482,0V51.733l18.81,38.016V104.5Zm-48.213,0V54.01h19.305v5.94h18.513l-2.97,15.84H228.211V88.66h23.364l-2.97,15.84Zm-77.616,0L130.2,99.847h-9.207L123.667,84.5h2.97L114.361,32.428H135.25L151.783,104.5Zm-36.927,0L110.8,39.061,120,77.671l-4.95,26.829Zm-24.255,0V33.22H89.413V104.5ZM292.957,56.881V33.22h18.81V93.412ZM397.9,49.357l4.455-16.137h19.8L406.609,75.889ZM318.2,66.781q.3-13.068,3.712-20.542a21.065,21.065,0,0,1,9.85-10.642q6.434-3.168,15.939-3.168,3.167,0,7.276.347a56.574,56.574,0,0,1,7.969,1.237V60.148H350.971l-1.584-11.979a14.978,14.978,0,0,0-4.405.594,6.066,6.066,0,0,0-3.217,2.425,14.488,14.488,0,0,0-1.98,5.594,62.938,62.938,0,0,0-.792,10Zm-166.914-.1q.494-12.177,4.653-19.7a25.751,25.751,0,0,1,11.335-11.038,37.024,37.024,0,0,1,16.484-3.514,46.367,46.367,0,0,1,7.227.594q3.761.594,7.722,1.386l-1.782,16.236q-3.267-.594-5.593-.941a31.844,31.844,0,0,0-4.7-.346,18.909,18.909,0,0,0-8.019,1.485,9.394,9.394,0,0,0-4.7,5.247,32.816,32.816,0,0,0-1.831,10.593Zm-137.808,0q.494-12.177,4.653-19.7A25.751,25.751,0,0,1,29.469,35.942a37.024,37.024,0,0,1,16.484-3.514,46.368,46.368,0,0,1,7.227.594q3.761.594,7.722,1.386L59.119,50.644q-3.267-.594-5.594-.941a31.844,31.844,0,0,0-4.7-.346A18.909,18.909,0,0,0,40.8,50.842a9.394,9.394,0,0,0-4.7,5.247A32.816,32.816,0,0,0,34.27,66.682ZM209.8,49.06l-6.336-15.84h47.421l-2.97,15.84Z" transform="translate(-13.48 -32.428)" fill="#16a34a"/>
</svg>
